<svg width="188" height="144" viewBox="0 0 188 144" fill="none" xmlns="http://www.w3.org/2000/svg">
<path d="M86.9103 138.724C121.483 138.724 149.51 110.697 149.51 76.1243C149.51 41.5514 121.483 13.5245 86.9103 13.5245C52.3374 13.5245 24.3105 41.5514 24.3105 76.1243C24.3105 110.697 52.3374 138.724 86.9103 138.724Z" fill="#3D3D3D"/>
<path d="M91.1484 39.3466L102.564 41.8294L103.422 41.9328C105.668 38.7226 108.004 36.0362 112.813 35.1786C119.737 33.9339 135.141 28.2476 143.637 48.2565C143.637 48.2565 134.216 50.7994 129.201 52.4979C129.201 52.4979 129.578 54.8205 129.334 57.627C137.73 54.4067 149.026 51.103 152.22 47.1953C155.417 43.2843 160.98 40.004 165.665 38.8127C170.353 37.628 174.858 35.9061 174.858 35.9061C174.858 35.9061 174.505 23.1953 166.322 12.2564C166.322 12.2564 150.735 18.51 146.203 22.0473C141.915 25.3944 135.251 25.7414 128.33 28.7414C127.462 29.1185 126.538 29.3688 125.6 29.4856C115.719 30.7136 114.565 29.4656 110.874 29.9895C106.999 30.5401 102.491 33.4534 99.1207 34.3377C98.0294 34.6247 94.7625 36.4734 91.1484 39.3466Z" fill="#DDB692"/>
<path opacity="0.4" d="M119.703 33.8305C119.703 33.8305 104.856 34.3044 101.289 41.5524C108.874 43.7849 117.157 37.0808 119.703 33.8305Z" fill="#DDB692"/>
<path d="M116.656 53.0387C116.673 53.0487 116.693 53.052 116.716 53.0554C116.72 52.9986 116.726 52.9352 116.726 52.8718C116.706 52.9286 116.683 52.9819 116.656 53.0387Z" fill="#DDB692"/>
<path d="M81.3848 66.17C84.2546 69.2734 88.5227 72.8308 90.2546 70.6617C91.2691 69.5237 91.7997 68.0287 91.2524 66.5271C91.1123 66.1299 90.8954 65.7328 90.5783 65.3424C90.4782 65.3558 90.3681 65.3658 90.2647 65.3724C87.3981 65.6761 84.4048 65.9397 81.3848 66.17Z" fill="#DDB692"/>
<path d="M116.656 53.0387C116.673 53.0487 116.693 53.052 116.716 53.0554C116.72 52.9986 116.726 52.9352 116.726 52.8718C116.706 52.9286 116.683 52.9819 116.656 53.0387Z" fill="#DDB692"/>
<path d="M114.104 69.3601C114.177 69.4202 114.257 69.4936 114.347 69.567C115.302 70.3512 117.174 71.6293 119.019 71.4424C120.768 71.2656 122.63 69.8707 124.522 67.6749C125.556 66.7138 125.907 66.3401 126.32 66.0264C126.868 65.6059 128.276 63.7572 129 59.8595C129 59.8528 129.003 59.8462 129 59.8428C129.127 59.1687 129.23 58.4312 129.307 57.6304C129.314 57.6304 129.324 57.6237 129.334 57.6237C129.577 54.8172 129.2 52.4946 129.2 52.4946C128.793 52.6348 128.413 52.7649 128.076 52.8917C127.238 53.1954 126.29 53.3956 125.279 53.5091C124.465 56.152 122.256 63.013 120.718 64.5748C119.743 65.5692 117.11 67.5781 114.104 69.3601Z" fill="#DDB692"/>
<path d="M129.307 57.6337C129.234 58.4346 129.127 59.1755 129 59.8462C129.167 59.0954 129.27 58.3445 129.33 57.6271C129.324 57.6271 129.314 57.6337 129.307 57.6337Z" fill="#DDB692"/>
<path opacity="0.4" d="M114.104 69.3602C114.177 69.4203 114.257 69.4937 114.347 69.5671C115.302 70.3513 117.174 71.6294 119.019 71.4425C120.768 71.2657 122.63 69.8708 124.522 67.675C125.556 66.7139 125.907 66.3402 126.32 66.0265C126.868 65.606 128.276 63.7573 129 59.8596C129 59.8529 129.003 59.8463 129 59.8429C129.167 59.0921 129.27 58.3413 129.33 57.6238C137.727 54.4035 149.022 51.0999 152.216 47.1922C155.413 43.2812 160.976 40.0008 165.661 38.8095C170.35 37.6249 174.855 35.9029 174.855 35.9029C174.855 35.9029 174.828 34.9318 174.618 33.2867C172.111 34.3612 168.167 35.9597 165.207 36.7105C160.522 37.9018 154.959 41.1821 151.762 45.0932C148.569 49.0009 137.273 52.3045 128.877 55.5248C128.813 56.2423 128.713 56.9964 128.546 57.7439C128.55 57.7473 128.546 57.7506 128.546 57.7606C127.825 61.6583 126.417 63.507 125.867 63.9275C125.453 64.2412 125.102 64.6149 124.068 65.576C122.176 67.7684 120.314 69.1667 118.565 69.3435C117.471 69.4503 116.359 69.0465 115.448 68.5326C115.011 68.8129 114.564 69.0866 114.104 69.3602Z" fill="#DDB692"/>
<path d="M104.41 72.537C104.493 72.6204 104.59 72.6838 104.71 72.7339C104.927 72.824 105.204 72.8574 105.558 72.8273C107.029 72.6938 108.795 72.0832 110.6 71.2356C110.603 71.2322 110.613 71.2322 110.617 71.2289C111.358 70.8885 112.102 70.5014 112.833 70.0976C113.26 69.8607 113.687 69.6137 114.104 69.3601C115.773 68.3724 117.328 67.3112 118.542 66.3902C118.692 66.2767 118.839 66.1666 118.986 66.0564C119.086 65.983 119.176 65.9063 119.27 65.8295C119.9 65.3356 120.394 64.8985 120.715 64.5781C122.253 63.0164 124.462 56.1554 125.276 53.5125C125.013 53.5458 124.742 53.5725 124.466 53.5926C124.262 53.6026 124.052 53.6193 123.845 53.6259C121.439 53.7361 118.849 53.4524 116.72 53.0553C116.557 55.5114 115.746 57.9641 114.328 59.8595C113.914 60.4102 113.076 60.9307 111.875 61.4213C111.878 62.6994 110.687 63.874 109.075 65.3423C107.67 66.6204 106.349 68.7828 104.487 70.2344C104.226 70.438 103.953 70.6249 103.666 70.8017C103.559 70.8651 103.505 70.8985 103.532 71.1388C103.542 71.7595 104.103 72.2167 104.41 72.537Z" fill="#DDB692"/>
<path d="M116.656 53.0387C116.673 53.0487 116.693 53.052 116.716 53.0554C116.72 52.9986 116.726 52.9352 116.726 52.8718C116.706 52.9286 116.683 52.9819 116.656 53.0387Z" fill="#DDB692"/>
<path d="M116.656 53.0387C116.673 53.0487 116.693 53.052 116.716 53.0554C116.72 52.9986 116.726 52.9352 116.726 52.8718C116.706 52.9286 116.683 52.9819 116.656 53.0387Z" fill="#DDB692"/>
<path d="M91.255 66.5303C93.0169 68.4724 95.9669 71.1387 99.2139 71.646C99.938 71.7594 100.609 71.7594 101.219 71.6727C101.223 71.676 101.223 71.676 101.226 71.6727C101.47 71.6426 101.703 71.5959 101.93 71.5392C101.934 71.5359 101.944 71.5359 101.947 71.5325C102.571 71.369 103.135 71.1154 103.662 70.795C103.949 70.6215 104.223 70.4346 104.483 70.2277C106.345 68.7761 107.667 66.617 109.071 65.3356C110.683 63.8673 111.875 62.6927 111.871 61.4146C111.875 61.1643 111.828 60.914 111.734 60.6537C111.574 60.2166 111.281 59.7627 110.81 59.2755C108.621 56.9896 104.777 59.2055 104.777 59.2055C102.965 59.9329 99.2572 63.7372 98.6599 64.2811C98.6065 64.3278 98.4964 64.3645 98.3429 64.4046C98.3262 64.4046 98.3095 64.4113 98.2962 64.4146C98.1727 64.438 98.0325 64.458 97.8657 64.4747C97.8456 64.478 97.829 64.478 97.8056 64.4813C95.5397 64.7984 93.1271 65.0787 90.6243 65.339C90.6109 65.3423 90.5942 65.3423 90.5742 65.3456C90.8946 65.7327 91.1148 66.1298 91.255 66.5303Z" fill="#DDB692"/>
<path opacity="0.4" d="M111.741 60.6605C111.835 60.9141 111.882 61.1677 111.878 61.418C111.882 62.6928 110.69 63.8674 109.078 65.3391C107.674 66.6171 106.355 68.7796 104.493 70.2312C104.233 70.4347 103.956 70.6216 103.672 70.7951C103.145 71.1188 102.578 71.3691 101.957 71.5326C101.951 71.536 101.944 71.536 101.941 71.5393C101.714 71.596 101.477 71.6427 101.233 71.6728C101.23 71.6795 101.23 71.6795 101.226 71.6728C100.612 71.7595 99.9449 71.7595 99.2208 71.6461C95.9705 71.1388 93.0239 68.4692 91.2586 66.5304C91.1618 66.2467 91.0183 65.9631 90.8281 65.6794C92.6168 67.5782 95.4099 69.9742 98.4733 70.4481C99.1941 70.5615 99.8649 70.5615 100.479 70.4748C100.482 70.4815 100.482 70.4815 100.486 70.4748C100.729 70.4447 100.966 70.398 101.193 70.3413C101.196 70.338 101.203 70.338 101.21 70.3346C101.834 70.1711 102.398 69.9175 102.925 69.5971C103.209 69.4236 103.486 69.2367 103.746 69.0332C105.608 67.5816 106.929 65.4225 108.331 64.1411C109.946 62.6727 111.137 61.4981 111.131 60.22C111.137 59.9731 111.087 59.7195 110.994 59.4692C111.364 59.8863 111.601 60.2801 111.741 60.6605Z" fill="#DDB692"/>
<path d="M46.0882 65.7061C45.8079 66.4136 46.2918 67.1845 47.0526 67.2145C54.6945 67.5182 68.3464 67.1544 81.3876 66.1667C84.4076 65.9364 87.4009 65.6728 90.2708 65.3724C90.3742 65.3658 90.4844 65.3524 90.5845 65.3424C90.6045 65.3391 90.6212 65.3391 90.6345 65.3357C93.1407 65.0721 95.55 64.7918 97.8159 64.4781C97.8359 64.4748 97.8526 64.4748 97.8759 64.4714C98.0194 64.4447 98.1663 64.4314 98.3064 64.4114C98.3198 64.408 98.3365 64.4014 98.3531 64.4014C98.51 64.3613 98.6201 64.3246 98.6702 64.2779C99.2642 63.7339 102.975 59.9297 104.787 59.2022C104.787 59.2022 108.631 56.9864 110.82 59.2723C111.288 59.7595 111.585 60.2167 111.745 60.6505C111.838 60.9075 111.885 61.1611 111.882 61.4114C113.083 60.9208 113.92 60.4036 114.334 59.8496C115.749 57.9542 116.563 55.5014 116.727 53.0454C116.704 53.0454 116.68 53.0387 116.667 53.0287C115.118 52.745 113.827 52.3946 113.029 52.0876C110.42 51.0832 108.221 51.3969 105.918 53.8896C103.619 56.3858 96.3309 62.1388 89.4766 61.7184C82.6323 61.2979 82.045 57.0598 82.9293 55.9519C83.8136 54.8507 84.3942 53.5259 90.481 52.4514C93.9048 51.5203 96.5712 51.2767 100.335 46.3546C101.48 44.8496 102.448 43.3379 103.429 41.9263C102.571 41.8229 102.571 41.8229 102.571 41.8229L91.1551 39.3401L50.8235 30.557C50.4431 30.4736 50.086 30.7639 50.0927 31.151C50.1361 35.2956 50.1628 55.4013 46.0882 65.7061Z" fill="#4A6B2F"/>
<path d="M128.351 53.3957C128.351 53.3957 128.951 56.1287 127.59 56.379C126.225 56.6293 124.964 55.7883 125.114 53.6626C126.542 53.1554 128.351 53.3957 128.351 53.3957Z" fill="#F1E4CE"/>
<path opacity="0.6" d="M125.68 55.8084C126.15 56.3323 126.854 56.5125 127.585 56.379C128.95 56.1288 128.346 53.3924 128.346 53.3924C128.346 53.3924 128.219 53.3724 127.999 53.359C128.109 54.0731 128.273 55.8484 127.185 56.0453C126.641 56.1421 126.11 56.0687 125.68 55.8084Z" fill="#F1E4CE"/>
<path d="M111.695 61.6983C111.695 61.6983 108.008 60.3434 107.317 60.6771C106.626 61.0109 104.25 63.7406 105.351 64.9953C106.783 66.6238 109.453 65.2356 111.695 61.6983Z" fill="#F1E4CE"/>
<path opacity="0.6" d="M105.35 64.9953C106.782 66.6271 109.452 65.2356 111.698 61.7016C111.698 61.7016 111.601 61.6649 111.427 61.6049C109.278 64.6783 106.839 65.8129 105.497 64.2812C105.284 64.0376 105.2 63.7406 105.214 63.4102C105.003 64.0042 104.987 64.5782 105.35 64.9953Z" fill="#F1E4CE"/>
<path opacity="0.4" d="M104.41 72.537C104.494 72.6204 104.59 72.6838 104.71 72.7339C104.927 72.824 105.204 72.8573 105.558 72.8273C107.03 72.6938 108.795 72.0831 110.6 71.2355C110.604 71.2322 110.614 71.2322 110.617 71.2288C113.287 69.9241 116.27 68.0653 118.543 66.3901C118.693 66.2767 118.84 66.1665 118.986 66.0564C119.087 65.983 119.177 65.9063 119.27 65.8295C123.568 62.2455 124.432 53.9296 124.462 53.5892C124.462 53.5825 124.462 53.5825 124.462 53.5825L123.842 53.6259C123.905 67.7149 104.41 72.537 104.41 72.537Z" fill="#DDB692"/>
<path d="M123.744 54.0964C123.744 54.0964 123.688 58.5147 121.385 58.8284C119.082 59.1421 118.458 56.9263 118.639 56.3623C118.822 55.7983 119.132 53.5225 119.132 53.5225C119.132 53.5225 123.364 53.3456 123.744 54.0964Z" fill="#F1E4CE"/>
<path opacity="0.6" d="M121.389 58.825C123.688 58.5114 123.748 54.0964 123.748 54.0964C123.691 53.983 123.538 53.8829 123.321 53.8094C123.277 54.6437 122.994 58.0876 120.972 58.3645C120.121 58.478 119.497 58.2477 119.053 57.884C119.473 58.488 120.211 58.9819 121.389 58.825Z" fill="#F1E4CE"/>
<path opacity="0.4" d="M100.222 62.7861C100.222 62.7861 97.7622 65.1087 98.0192 66.3368C96.8379 64.6148 96.8379 64.6148 96.8379 64.6148L98.6699 64.2845L100.222 62.7861Z" fill="#DDB692"/>
<path opacity="0.4" d="M88.9766 65.5092C88.9766 65.5092 91.3525 66.4436 91.1923 69.1766C92.1367 67.4547 90.5817 65.3457 90.5817 65.3457L88.9766 65.5092Z" fill="#DDB692"/>
<path d="M50.0664 63.864C68.7405 63.9741 89.23 63.5537 100.449 62.5726C101.834 61.2711 103.669 59.6526 104.787 59.2055C104.787 59.2055 108.632 56.9897 110.821 59.2756L110.861 59.3189C112.549 57.4268 113.941 54.7438 114.158 52.4613C113.717 52.3378 113.334 52.211 113.027 52.0942C110.417 51.0898 108.218 51.4035 105.915 53.8962C103.616 56.3923 96.328 62.1454 89.4737 61.725C82.6294 61.3045 82.0421 57.0664 82.9264 55.9585C83.8107 54.8573 84.3913 53.5325 90.4781 52.458C93.9019 51.5269 96.5682 51.2833 100.332 46.3612C100.856 45.6704 101.347 44.9763 101.817 44.2889L52.8862 34.2243C52.8862 34.221 53.6637 50.4991 50.0664 63.864Z" fill="#5B813B"/>
<path d="M89.4695 61.7249C96.3238 62.1454 103.612 56.3923 105.911 53.8962C108.21 51.4001 110.413 51.0897 113.022 52.0942C113.82 52.4012 115.111 52.7516 116.66 53.0352C116.686 52.9785 116.71 52.9251 116.73 52.8684C116.73 52.9318 116.723 52.9918 116.72 53.0519C118.849 53.449 121.438 53.7327 123.844 53.6225C124.335 53.6025 124.812 53.5658 125.276 53.5091C126.287 53.399 127.235 53.1954 128.072 52.8917C128.413 52.7649 128.793 52.6348 129.197 52.4946C134.213 50.796 143.633 48.2532 143.633 48.2532C135.137 28.2409 119.737 33.9306 112.809 35.1753C108 36.0363 105.664 38.7193 103.418 41.9295C102.437 43.3411 101.469 44.8528 100.325 46.3578C96.5607 51.2799 93.8911 51.5235 90.4706 52.4546C84.3838 53.5291 83.8031 54.8572 82.9188 55.9551C82.0378 57.0664 82.6252 61.3078 89.4695 61.7249Z" fill="#DDB692"/>
<path d="M90.3549 53.7794C90.3549 53.7794 91.3828 58.3779 91.0123 58.7149C90.6419 59.052 86.0235 60.5537 84.8255 59.6126C83.6275 58.6716 82.613 55.0776 85.4228 54.32C88.2393 53.5659 90.3549 53.7794 90.3549 53.7794Z" fill="#F1E4CE"/>
<path opacity="0.4" d="M138.26 45.9574C138.26 45.9574 131.793 52.8651 126.684 53.2856C121.575 53.706 116.299 53.2822 112.535 51.924C123.481 52.3145 122.353 55.3045 138.26 45.9574Z" fill="#DDB692"/>
<path opacity="0.6" d="M85.9023 59.9163C87.7077 60.0031 90.7144 58.9886 91.0114 58.7216C91.3818 58.3846 90.3573 53.7895 90.3573 53.7895C90.3573 53.7895 90.3006 53.7861 90.1871 53.7761C90.6877 55.4947 91.1115 59.1688 85.9023 59.9163Z" fill="#F1E4CE"/>
<path d="M166.095 44.9196L170.129 43.2778L157.061 11.1386L153.027 12.7804C152.706 12.9106 152.553 13.2743 152.683 13.5947L165.28 44.5759C165.411 44.8929 165.774 45.0497 166.095 44.9196Z" fill="#F1E4CE"/>
<path d="M175.749 45.6271L187.308 40.4645L171.24 0.950439L159.681 6.11304C157.472 7.0107 155.906 8.29881 156.187 8.98624L171.24 46.0075C171.521 46.6949 173.539 46.5281 175.749 45.6271Z" fill="#3C3C3B"/>
<path opacity="0.4" d="M82.9292 55.9252C82.3285 56.6793 82.4086 58.8785 84.6745 60.3468C78.7913 60.1299 74.1094 56.5759 74.1094 52.2244C74.1094 47.7327 79.0983 44.092 85.2485 44.092C90.5444 44.092 94.976 46.7883 96.1072 50.4057C94.2418 51.5636 92.4932 51.8773 90.481 52.4246C84.3942 53.4991 83.8135 54.8239 82.9292 55.9252Z" fill="#5B813B"/>
<path d="M85.4727 114.063C88.6395 114.254 91.3492 114.297 93.011 114.31C94.7497 112.895 95.1868 111 95.0867 109.238C91.7864 110.796 88.5528 112.415 85.4727 114.063Z" fill="#F4C198"/>
<path d="M73.8867 121.054C79.1392 121.979 84.2116 122.459 87.6587 122.716C87.6688 122.716 87.6687 122.716 87.6687 122.716C90.7922 121.879 92.097 118.678 91.9735 115.001C92.1971 114.877 92.4207 114.744 92.6076 114.61C90.9357 114.767 88.2694 114.867 84.5786 114.554H84.5686C80.701 116.663 77.087 118.835 73.8867 121.054Z" fill="#F4C198"/>
<path d="M61.1751 126.43C65.5567 129.741 76.7091 131.169 81.6279 131.66C86.6669 131.002 86.3999 126.197 85.5189 123.207C82.362 123.14 78.718 122.706 73.4087 121.388C71.2563 122.903 69.2942 124.445 67.5889 125.983C66.9649 125.046 66.3943 124.188 65.8603 123.384C65.3798 123.751 64.9026 124.108 64.4321 124.475C62.7936 123.227 60.6645 120.974 58.6223 118.655C58.1417 118.989 57.6512 119.312 57.1273 119.626C57.1273 119.626 57.1273 119.626 57.1172 119.636C57.1172 119.646 57.1072 119.646 57.1072 119.646C56.9604 119.906 55.7658 122.339 61.1751 126.43Z" fill="#F4C198"/>
<path d="M19.6367 104.406V138.274L33.7091 138.14C33.7091 138.14 38.0372 139.388 47.5145 140.783C54.4055 141.797 61.0629 140.526 67.0863 140.026C60.6858 138.364 56.7714 133.101 57.2286 130.568C57.7192 127.835 60.6624 127.782 60.886 127.782C60.7525 127.839 58.51 128.763 58.0195 130.381C57.3855 135.133 64.9205 138.667 68.1107 139.949C70.9372 141.18 72.4222 141.324 74.1608 141.18C80.7949 140.633 79.8638 133.749 78.3355 131.619C75.3255 131.239 71.7548 130.795 69.3021 130.472C64.2831 129.824 58.8538 126.714 57.2687 123.824C55.807 121.181 56.9116 119.853 57.1018 119.653C51.7392 122.863 44.4244 124.525 35.1006 120.991C25.3197 117.277 24.9527 110.81 27.4287 104.9C23.1173 105.344 19.6367 104.406 19.6367 104.406Z" fill="#F4C198"/>
<path d="M84.582 114.554C88.2728 114.868 90.9391 114.764 92.611 114.611C92.7545 114.51 92.8913 114.41 93.0114 114.31C91.3496 114.3 88.6399 114.254 85.473 114.063C85.1727 114.22 84.8824 114.387 84.582 114.554Z" fill="#CB9672"/>
<path d="M85.5184 123.207C85.485 123.117 85.4516 123.03 85.4283 122.94C86.2659 122.983 86.99 122.916 87.6574 122.716C84.2102 122.459 79.1379 121.979 73.8854 121.054H73.8754C73.7085 121.165 73.5617 121.278 73.4082 121.388C78.7141 122.706 82.3615 123.14 85.5184 123.207Z" fill="#CB9672"/>
<path d="M57.2718 123.821C58.8569 126.707 64.2862 129.821 69.3052 130.468C71.7579 130.792 75.3252 131.239 78.3386 131.616C78.3286 131.606 78.3286 131.593 78.3152 131.583C79.62 131.773 80.7112 131.783 81.6256 131.66C76.7067 131.169 65.5577 129.741 61.1728 126.43C55.7634 122.339 56.9581 119.906 57.1016 119.65C56.9147 119.85 55.8135 121.178 57.2718 123.821Z" fill="#CB9672"/>
<path d="M67.0852 140.022C67.0852 140.022 67.0852 140.022 67.0952 140.022C67.4423 139.989 67.776 139.965 68.1097 139.945C64.9194 138.664 57.381 135.127 58.0184 130.378C58.509 128.76 60.7515 127.835 60.8849 127.779C60.6614 127.779 57.7181 127.835 57.2275 130.565C56.7704 133.098 60.6847 138.364 67.0852 140.022Z" fill="#CB9672"/>
<path d="M58.623 118.658C60.662 120.978 62.7944 123.23 64.4328 124.478C64.9 124.111 65.3806 123.754 65.8611 123.387C67.1659 122.406 68.5141 121.435 69.919 120.477C69.9857 120.42 70.0525 120.377 70.1192 120.334C73.2861 118.171 76.6665 116.062 80.1771 114.043C80.3673 113.92 80.5575 113.81 80.7577 113.71C85.196 111.157 89.8345 108.737 94.5197 106.462C117.545 95.2424 138.786 88.6684 138.786 88.6684C138.786 88.6684 134.694 82.9019 125.771 76.7684C121.31 77.5059 114.198 81.447 97.1593 89.2857C95.4207 90.0899 93.6788 90.8908 91.9402 91.7051C92.7544 91.7051 93.6454 91.9387 94.6265 92.5293C99.0881 95.2057 93.9224 100.635 92.8078 101.616C92.651 101.75 92.3306 101.673 92.2839 101.84C89.4841 103.054 86.9746 104.506 84.3651 105.664C80.1837 106.812 74.7544 107.583 68.1403 107.046C67.7833 108.317 65.5307 112.622 61.3728 116.423C61.3628 116.433 61.3628 116.433 61.3628 116.433C60.5285 117.207 59.6142 117.954 58.623 118.658Z" fill="#4A6B2F"/>
<path d="M134.256 87.0198C134.256 87.0198 113.019 93.5938 89.9899 104.813C85.308 107.085 80.6662 109.508 76.2312 112.061C76.0277 112.158 75.8408 112.275 75.6506 112.395C72.14 114.414 68.7596 116.523 65.5927 118.685C65.5259 118.728 65.4592 118.775 65.3925 118.829C64.0109 119.773 62.6794 120.727 61.3947 121.692C60.4837 120.751 59.5326 119.706 58.6016 118.648C59.5927 117.944 60.5103 117.197 61.3446 116.426C61.3446 116.426 61.3446 116.426 61.358 116.416C65.5159 112.612 67.7684 108.307 68.1255 107.035C74.7362 107.573 80.1656 106.802 84.3469 105.654C86.9565 104.496 89.466 103.044 92.2657 101.83C92.3125 101.663 92.6328 101.743 92.7897 101.609C93.9009 100.628 99.0667 95.1955 94.605 92.5192C93.6239 91.9286 92.7296 91.695 91.9154 91.695C93.6573 90.8807 95.3959 90.0765 97.1345 89.2723C112.168 82.3579 119.473 78.4769 124.048 77.1521C131.026 82.4714 134.256 87.0198 134.256 87.0198Z" fill="#7CA857"/>
<path d="M65.8574 123.387C66.3914 124.191 66.962 125.049 67.586 125.987C69.2912 124.448 71.2534 122.91 73.4058 121.391C73.5627 121.281 73.7062 121.168 73.873 121.058H73.883C77.0833 118.839 80.6973 116.663 84.5649 114.557H84.575C84.8753 114.39 85.1656 114.223 85.4659 114.067C88.5427 112.415 91.7763 110.8 95.0766 109.238C120.088 97.4581 138.168 92.626 138.168 92.626L135.715 89.636C130.253 91.3546 117.545 95.239 94.5194 106.455C89.8375 108.731 85.1956 111.15 80.7574 113.703C80.5571 113.803 80.3669 113.916 80.1767 114.037C76.6628 116.055 73.2857 118.161 70.1188 120.327C70.0521 120.37 69.9853 120.417 69.9186 120.47C68.5137 121.435 67.1622 122.406 65.8574 123.387Z" fill="#3D5A25"/>
<path d="M35.1023 120.988C44.426 124.522 51.7408 122.86 57.1035 119.65C57.1035 119.65 57.1135 119.65 57.1135 119.64C57.1235 119.63 57.1235 119.63 57.1235 119.63C57.6474 119.316 58.138 118.995 58.6185 118.658C59.6096 117.954 60.524 117.21 61.3616 116.439C61.3616 116.439 61.3615 116.439 61.3716 116.429C65.5295 112.628 67.7821 108.324 68.1391 107.052C74.7532 107.586 80.1825 106.819 84.3639 105.671C86.9734 104.509 88.8922 103.652 91.6887 102.437C91.7321 102.27 92.6464 101.756 92.8033 101.623C93.9178 100.642 99.0803 95.2123 94.622 92.536C93.6409 91.9453 92.7499 91.7117 91.9356 91.7117H91.9256C91.6687 91.7117 91.4251 91.7351 91.1781 91.7785C89.7499 92.0354 88.5685 92.9598 87.5541 93.7407C87.5441 93.7507 87.5307 93.7507 87.5307 93.764C86.8967 94.2546 86.316 94.7017 85.7687 94.8786C85.692 94.9019 85.6253 94.922 85.5585 94.9353C85.3583 94.9787 85.1347 95.0021 84.8678 95.0021C82.3817 95.1456 77.2626 94.2445 73.8488 94.378C70.0913 94.5115 67.4383 93.9542 63.534 92.7062C59.6296 91.4448 42.347 97.5783 35.3759 102.183C32.7897 103.889 29.9666 104.636 27.4237 104.903C24.9543 110.806 25.3247 117.277 35.1023 120.988Z" fill="#F4C198"/>
<path d="M85.7754 94.8719C86.2426 95.6862 87.257 96.6572 88.3749 97.0677C90.0935 97.7251 93.0568 94.8919 93.0568 94.0009C92.5429 92.5059 91.7754 91.962 91.1848 91.7718C89.7565 92.0287 88.5752 92.9531 87.5607 93.734C87.5507 93.744 87.5374 93.744 87.5374 93.7573C86.9 94.2479 86.3193 94.6951 85.7754 94.8719Z" fill="#FFF4E3"/>
<path opacity="0.5" d="M93.0568 94.0009C93.0568 94.8953 90.0902 97.7251 88.3749 97.0677C87.257 96.6572 86.2426 95.6861 85.7754 94.8719C85.9623 94.8085 86.1558 94.7184 86.3527 94.5983C86.8799 95.1789 87.6008 95.7295 88.3749 96.0165C89.8232 96.5704 92.1592 94.6416 92.8566 93.4904C92.9267 93.6472 92.9934 93.8207 93.0568 94.0009Z" fill="#EADECE"/>
<path d="M68.1428 107.049C68.1428 107.049 61.9393 123.791 42.1973 123.561C45.2707 122.132 57.6812 122.876 68.1428 107.049Z" fill="#CB9672"/>
<path d="M61.4657 128.746C61.1554 128.69 60.8384 128.796 60.6281 129.03C59.944 129.778 58.5725 131.54 59.34 132.894C60.3378 134.66 62.4034 135.124 63.0942 134.429C63.785 133.739 65.1231 131.55 64.706 130.321C64.389 129.387 62.4034 128.92 61.4657 128.746Z" fill="#FFF4E3"/>
<path opacity="0.5" d="M64.7755 131.119C64.6387 132.337 63.6576 133.872 63.1003 134.433C62.4062 135.12 60.3439 134.66 59.3461 132.898C58.999 132.284 59.0925 131.586 59.3628 130.939C59.3327 131.296 59.3928 131.65 59.5763 131.977C60.5741 133.742 62.6397 134.202 63.3272 133.512C63.7543 133.085 64.4184 132.1 64.7755 131.119Z" fill="#EADECE"/>
<path d="M59.0617 119.156C59.0617 119.156 57.4866 120.721 57.7936 121.565C58.1006 122.409 59.6223 124.565 61.2808 123.564C62.4121 122.7 62.4121 122.7 62.4121 122.7L59.0617 119.156Z" fill="#FFF4E3"/>
<path opacity="0.5" d="M62.4091 122.7C62.4091 122.7 62.4091 122.7 61.2779 123.564C59.6194 124.565 58.0977 122.409 57.7907 121.565C57.7239 121.385 57.7439 121.168 57.8173 120.941C58.1844 121.832 59.6661 123.834 61.2779 122.86C61.6183 122.603 61.8552 122.419 62.022 122.293L62.4091 122.7Z" fill="#EADECE"/>
<path opacity="0.3" d="M105.348 89.7095C105.348 95.269 100.843 99.7707 95.2868 99.7707C95.0299 99.7707 94.7729 99.7607 94.5227 99.7407C96.1511 97.6417 97.7863 94.388 94.6428 92.5059C93.6617 91.9153 92.7674 91.6817 91.9531 91.6817C93.6951 90.8674 95.4337 90.0632 97.1723 89.259C99.8786 88.0143 102.338 86.8697 104.571 85.8185C105.074 87.0165 105.348 88.3313 105.348 89.7095Z" fill="#7CA857"/>
<path d="M20.9698 141.163H15.6973V102.027H20.9698C22.0176 102.027 22.8686 102.877 22.8686 103.925V139.265C22.8686 140.316 22.0176 141.163 20.9698 141.163Z" fill="#F1E4CE"/>
<path d="M16.1838 143.199H0.185547V99.8774H16.1838C16.3376 99.8774 16.4622 100.461 16.4622 101.182V141.898C16.4622 142.615 16.3376 143.199 16.1838 143.199Z" fill="#3C3C3B"/>
</svg>
