<svg width="175" height="32" viewBox="0 0 175 32" fill="none" xmlns="http://www.w3.org/2000/svg">
<path d="M2.22 31V1.03H12.284C14.0847 1.03 15.5647 1.37533 16.724 2.066C17.8833 2.732 18.7467 3.71867 19.314 5.026C19.8813 6.30867 20.165 7.875 20.165 9.725C20.165 12.0437 19.7827 13.8197 19.018 15.053C18.2533 16.2617 17.2173 17.1003 15.91 17.569C14.6027 18.0377 13.135 18.272 11.507 18.272H8.843V31H2.22ZM8.843 13.647H11.063C11.877 13.647 12.4937 13.499 12.913 13.203C13.3323 12.907 13.6037 12.463 13.727 11.871C13.875 11.279 13.949 10.5267 13.949 9.614C13.949 8.84933 13.8873 8.18333 13.764 7.616C13.6653 7.024 13.4063 6.55533 12.987 6.21C12.5677 5.86467 11.914 5.692 11.026 5.692H8.843V13.647ZM19.2553 31L24.9163 1.03H32.4643L38.0513 31H31.9463L30.9473 24.673H26.5443L25.5083 31H19.2553ZM27.1363 20.714H30.3183L28.7273 9.022L27.1363 20.714ZM42.4448 31V18.753L36.7468 1.03H42.9998L45.8488 10.502L48.4018 1.03H54.3958L48.8088 18.753V31H42.4448Z" fill="#44C4F1"/>
<path d="M61.777 31L61.0892 30.8701L60.9324 31.7H61.777V31ZM67.438 1.03V0.329998H66.8578L66.7502 0.900073L67.438 1.03ZM74.986 1.03L75.6741 0.901714L75.5676 0.329998H74.986V1.03ZM80.573 31V31.7H81.4156L81.2611 30.8717L80.573 31ZM74.468 31L73.7766 31.1092L73.8699 31.7H74.468V31ZM73.469 24.673L74.1604 24.5638L74.0671 23.973H73.469V24.673ZM69.066 24.673V23.973H68.4713L68.3752 24.5599L69.066 24.673ZM68.03 31V31.7H68.6247L68.7208 31.1131L68.03 31ZM69.658 20.714L68.9644 20.6196L68.8563 21.414H69.658V20.714ZM72.84 20.714V21.414H73.6417L73.5336 20.6196L72.84 20.714ZM71.249 9.022L71.9426 8.92762L70.5554 8.92762L71.249 9.022ZM62.4648 31.1299L68.1258 1.15992L66.7502 0.900073L61.0892 30.8701L62.4648 31.1299ZM67.438 1.73H74.986V0.329998H67.438V1.73ZM74.2979 1.15828L79.8849 31.1283L81.2611 30.8717L75.6741 0.901714L74.2979 1.15828ZM80.573 30.3H74.468V31.7H80.573V30.3ZM75.1594 30.8908L74.1604 24.5638L72.7776 24.7822L73.7766 31.1092L75.1594 30.8908ZM73.469 23.973H69.066V25.373H73.469V23.973ZM68.3752 24.5599L67.3392 30.8869L68.7208 31.1131L69.7568 24.7861L68.3752 24.5599ZM68.03 30.3H61.777V31.7H68.03V30.3ZM69.658 21.414H72.84V20.014H69.658V21.414ZM73.5336 20.6196L71.9426 8.92762L70.5554 9.11638L72.1464 20.8084L73.5336 20.6196ZM70.5554 8.92762L68.9644 20.6196L70.3516 20.8084L71.9426 9.11638L70.5554 8.92762ZM85.0902 30.149L84.6777 30.7146L84.6833 30.7186L85.0902 30.149ZM82.5372 26.523L81.8689 26.7318L81.8731 26.7444L82.5372 26.523ZM82.6112 5.507L83.272 5.73778L83.272 5.73778L82.6112 5.507ZM85.3862 1.918L85.7642 2.50719L85.7669 2.50541L85.3862 1.918ZM96.0052 1.733L95.6503 2.33637L95.6554 2.33933L96.0052 1.733ZM98.7432 4.804L98.0967 5.07236L98.0967 5.07236L98.7432 4.804ZM99.5572 11.316V12.016H100.257V11.316H99.5572ZM93.0822 11.316H92.3822V12.016H93.0822V11.316ZM92.9342 7.098L92.2406 7.19258L92.2427 7.20795L92.2455 7.22322L92.9342 7.098ZM92.3422 5.803L91.8107 6.25855L91.8282 6.27896L91.8472 6.29797L92.3422 5.803ZM89.3082 5.877L89.8372 6.33545L89.8444 6.32705L89.8515 6.31841L89.3082 5.877ZM88.6792 7.283L87.9895 7.16306L87.987 7.17771L87.9851 7.19246L88.6792 7.283ZM88.7532 24.821L88.0679 24.9638L88.0714 24.9808L88.0758 24.9977L88.7532 24.821ZM89.4932 26.227L88.9814 26.7046L88.9979 26.7223L89.0156 26.7387L89.4932 26.227ZM92.6382 26.19L92.1432 25.695L92.1432 25.695L92.6382 26.19ZM93.4152 24.747L92.7361 24.5772L92.7361 24.5772L93.4152 24.747ZM93.6372 19.345H94.3372V18.645H93.6372V19.345ZM90.9362 19.345H90.2362V20.045H90.9362V19.345ZM90.9362 15.46V14.76H90.2362V15.46H90.9362ZM99.5942 15.46H100.294V14.76H99.5942V15.46ZM99.5942 31V31.7H100.294V31H99.5942ZM95.2282 31L94.5359 31.1033L94.6249 31.7H95.2282V31ZM94.8582 28.521L95.5505 28.4177L95.2092 26.1311L94.2248 28.2229L94.8582 28.521ZM93.1192 30.63L93.5243 31.2009L93.5303 31.1966L93.5363 31.1922L93.1192 30.63ZM90.0112 30.744C88.0291 30.744 86.5484 30.3303 85.497 29.5794L84.6833 30.7186C86.0493 31.6943 87.8493 32.144 90.0112 32.144V30.744ZM85.5026 29.5834C84.4499 28.8158 83.6789 27.7345 83.2013 26.3016L81.8731 26.7444C82.4315 28.4195 83.3624 29.7555 84.6778 30.7146L85.5026 29.5834ZM83.2053 26.3142C82.7374 24.817 82.4972 23.0766 82.4972 21.084H81.0972C81.0972 23.186 81.3503 25.0717 81.869 26.7318L83.2053 26.3142ZM82.4972 21.084V11.02H81.0972V21.084H82.4972ZM82.4972 11.02C82.4972 8.95572 82.7615 7.19968 83.272 5.73778L81.9503 5.27622C81.3755 6.92232 81.0972 8.84161 81.0972 11.02H82.4972ZM83.272 5.73778C83.7664 4.32204 84.5967 3.2561 85.7641 2.50719L85.0082 1.32881C83.561 2.25723 82.5413 3.58395 81.9503 5.27622L83.272 5.73778ZM85.7669 2.50541C86.9466 1.74077 88.5986 1.323 90.7882 1.323V-0.0770015C88.4391 -0.0770015 86.4897 0.368565 85.0055 1.33059L85.7669 2.50541ZM90.7882 1.323C92.9433 1.323 94.5419 1.68435 95.6503 2.33635L96.3601 1.12965C94.9525 0.301653 93.073 -0.0770015 90.7882 -0.0770015V1.323ZM95.6554 2.33933C96.8113 3.00619 97.6159 3.91414 98.0967 5.07236L99.3897 4.53564C98.7851 3.07919 97.7644 1.93981 96.355 1.12667L95.6554 2.33933ZM98.0967 5.07236C98.5967 6.27704 98.8572 7.71159 98.8572 9.392H100.257C100.257 7.56974 99.975 5.94562 99.3897 4.53564L98.0967 5.07236ZM98.8572 9.392V11.316H100.257V9.392H98.8572ZM99.5572 10.616H93.0822V12.016H99.5572V10.616ZM93.7822 11.316V8.874H92.3822V11.316H93.7822ZM93.7822 8.874C93.7822 8.19727 93.7302 7.56278 93.6229 6.97278L92.2455 7.22322C92.3355 7.71855 92.3822 8.26806 92.3822 8.874H93.7822ZM93.6278 7.00342C93.5375 6.34154 93.287 5.75789 92.8372 5.30802L91.8472 6.29797C92.0387 6.48944 92.1829 6.76913 92.2406 7.19258L93.6278 7.00342ZM92.8737 5.34744C92.3881 4.78098 91.6504 4.585 90.8622 4.585V5.985C91.4553 5.985 91.7042 6.13435 91.8107 6.25855L92.8737 5.34744ZM90.8622 4.585C90.0259 4.585 89.2663 4.81843 88.7649 5.43558L89.8515 6.31841C89.9914 6.14624 90.2678 5.985 90.8622 5.985V4.585ZM88.7792 5.41855C88.3615 5.90048 88.1061 6.4927 87.9895 7.16306L89.3688 7.40294C89.4496 6.93863 89.6135 6.59352 89.8372 6.33545L88.7792 5.41855ZM87.9851 7.19246C87.9069 7.79203 87.8682 8.41437 87.8682 9.059H89.2682C89.2682 8.47029 89.3035 7.90864 89.3733 7.37354L87.9851 7.19246ZM87.8682 9.059V22.934H89.2682V9.059H87.8682ZM87.8682 22.934C87.8682 23.6432 87.9338 24.3204 88.0679 24.9638L89.4385 24.6782C89.3258 24.1376 89.2682 23.5568 89.2682 22.934H87.8682ZM88.0758 24.9977C88.2485 25.6596 88.545 26.237 88.9814 26.7046L90.0049 25.7494C89.7507 25.477 89.5538 25.1171 89.4305 24.6443L88.0758 24.9977ZM89.0156 26.7387C89.5519 27.2393 90.2614 27.445 91.0472 27.445V26.045C90.501 26.045 90.1745 25.9054 89.9708 25.7153L89.0156 26.7387ZM91.0472 27.445C91.8619 27.445 92.5939 27.2242 93.1332 26.685L92.1432 25.695C91.9424 25.8958 91.6138 26.045 91.0472 26.045V27.445ZM93.1332 26.685C93.6069 26.2113 93.9207 25.6111 94.0943 24.9168L92.7361 24.5772C92.6137 25.0669 92.4095 25.4287 92.1432 25.695L93.1332 26.685ZM94.0943 24.9168C94.2574 24.2644 94.3372 23.5781 94.3372 22.86H92.9372C92.9372 23.4739 92.869 24.0456 92.7361 24.5772L94.0943 24.9168ZM94.3372 22.86V19.345H92.9372V22.86H94.3372ZM93.6372 18.645H90.9362V20.045H93.6372V18.645ZM91.6362 19.345V15.46H90.2362V19.345H91.6362ZM90.9362 16.16H99.5942V14.76H90.9362V16.16ZM98.8942 15.46V31H100.294V15.46H98.8942ZM99.5942 30.3H95.2282V31.7H99.5942V30.3ZM95.9205 30.8967L95.5505 28.4177L94.1658 28.6243L94.5359 31.1033L95.9205 30.8967ZM94.2248 28.2229C93.8807 28.9541 93.3766 29.5674 92.7021 30.0678L93.5363 31.1922C94.3911 30.5579 95.0463 29.7652 95.4916 28.8191L94.2248 28.2229ZM92.7141 30.0591C92.1062 30.4905 91.2289 30.744 90.0112 30.744V32.144C91.4081 32.144 92.6028 31.8548 93.5243 31.2009L92.7141 30.0591ZM102.814 31H102.114V31.7H102.814V31ZM102.814 1.03V0.329998H102.114V1.03H102.814ZM116.282 1.03H116.982V0.329998H116.282V1.03ZM116.282 5.544V6.244H116.982V5.544H116.282ZM109.437 5.544V4.844H108.737V5.544H109.437ZM109.437 12.981H108.737V13.681H109.437V12.981ZM114.654 12.981H115.354V12.281H114.654V12.981ZM114.654 17.569V18.269H115.354V17.569H114.654ZM109.437 17.569V16.869H108.737V17.569H109.437ZM109.437 26.523H108.737V27.223H109.437V26.523ZM116.356 26.523H117.056V25.823H116.356V26.523ZM116.356 31V31.7H117.056V31H116.356ZM103.514 31V1.03H102.114V31H103.514ZM102.814 1.73H116.282V0.329998H102.814V1.73ZM115.582 1.03V5.544H116.982V1.03H115.582ZM116.282 4.844H109.437V6.244H116.282V4.844ZM108.737 5.544V12.981H110.137V5.544H108.737ZM109.437 13.681H114.654V12.281H109.437V13.681ZM113.954 12.981V17.569H115.354V12.981H113.954ZM114.654 16.869H109.437V18.269H114.654V16.869ZM108.737 17.569V26.523H110.137V17.569H108.737ZM109.437 27.223H116.356V25.823H109.437V27.223ZM115.656 26.523V31H117.056V26.523H115.656ZM116.356 30.3H102.814V31.7H116.356V30.3ZM118.438 31H117.738V31.7H118.438V31ZM118.438 1.03V0.329998H117.738V1.03H118.438ZM123.1 1.03L123.744 0.75585L123.563 0.329998H123.1V1.03ZM129.242 15.46L128.598 15.7341L129.942 15.46H129.242ZM129.242 1.03V0.329998H128.542V1.03H129.242ZM134.718 1.03H135.418V0.329998H134.718V1.03ZM134.718 31V31.7H135.418V31H134.718ZM130.241 31L129.59 31.2573L129.765 31.7H130.241V31ZM124.099 15.46L124.75 15.2027L123.399 15.46H124.099ZM124.099 31V31.7H124.799V31H124.099ZM119.138 31V1.03H117.738V31H119.138ZM118.438 1.73H123.1V0.329998H118.438V1.73ZM122.456 1.30415L128.598 15.7341L129.886 15.1859L123.744 0.75585L122.456 1.30415ZM129.942 15.46V1.03H128.542V15.46H129.942ZM129.242 1.73H134.718V0.329998H129.242V1.73ZM134.018 1.03V31H135.418V1.03H134.018ZM134.718 30.3H130.241V31.7H134.718V30.3ZM130.892 30.7427L124.75 15.2027L123.448 15.7173L129.59 31.2573L130.892 30.7427ZM123.399 15.46V31H124.799V15.46H123.399ZM124.099 30.3H118.438V31.7H124.099V30.3ZM141.435 30.223L141.057 30.8122L141.064 30.8163L141.07 30.8203L141.435 30.223ZM138.66 26.745L138.002 26.9825L138.003 26.986L138.66 26.745ZM138.66 5.322L139.318 5.56298L139.319 5.55949L138.66 5.322ZM141.435 1.844L141.07 1.24668L141.065 1.24977L141.435 1.844ZM152.017 1.733L151.657 2.33324L151.664 2.33746L151.671 2.3415L152.017 1.733ZM154.681 4.767L154.031 5.02485L154.031 5.02485L154.681 4.767ZM155.458 11.871V12.571H156.158V11.871H155.458ZM148.983 11.871H148.283V12.571H148.983V11.871ZM148.872 7.172L148.175 7.23537L148.177 7.25101L148.179 7.26658L148.872 7.172ZM148.354 5.84L147.808 6.27729L147.815 6.28655L147.823 6.29555L148.354 5.84ZM145.283 5.84L144.772 5.36238L144.763 5.3718L144.754 5.38155L145.283 5.84ZM144.654 7.246L143.965 7.12606L143.963 7.1387L143.961 7.15142L144.654 7.246ZM144.691 24.932L144.002 25.0519L144.005 25.0696L144.009 25.0871L144.691 24.932ZM145.357 26.264L144.844 26.7403L144.862 26.7593L144.881 26.777L145.357 26.264ZM148.317 26.227L148.849 26.6826L148.857 26.6735L148.864 26.6643L148.317 26.227ZM148.872 24.821L148.178 24.7305L148.178 24.7305L148.872 24.821ZM148.983 19.937V19.237H148.283V19.937H148.983ZM155.458 19.937H156.158V19.237H155.458V19.937ZM154.681 27.115L154.027 26.8653L154.025 26.8719L154.681 27.115ZM152.054 30.297L152.423 30.8919L152.426 30.8899L152.054 30.297ZM146.837 30.744C144.642 30.744 142.983 30.3487 141.8 29.6257L141.07 30.8203C142.551 31.7253 144.494 32.144 146.837 32.144V30.744ZM141.813 29.6338C140.637 28.879 139.809 27.8429 139.318 26.504L138.003 26.986C138.598 28.6071 139.619 29.8897 141.057 30.8122L141.813 29.6338ZM139.319 26.5075C138.81 25.0961 138.546 23.4162 138.546 21.454H137.146C137.146 23.5372 137.426 25.3845 138.002 26.9825L139.319 26.5075ZM138.546 21.454V10.65H137.146V21.454H138.546ZM138.546 10.65C138.546 8.6358 138.811 6.94578 139.318 5.56298L138.003 5.08102C137.425 6.65822 137.146 8.5202 137.146 10.65H138.546ZM139.319 5.55949C139.81 4.1966 140.637 3.1657 141.805 2.43823L141.065 1.24977C139.619 2.1503 138.596 3.43807 138.002 5.08451L139.319 5.55949ZM141.8 2.4413C142.983 1.7183 144.642 1.323 146.837 1.323V-0.0770015C144.494 -0.0770015 142.551 0.341694 141.07 1.2467L141.8 2.4413ZM146.837 1.323C148.994 1.323 150.577 1.68482 151.657 2.33324L152.378 1.13275C150.992 0.301183 149.121 -0.0770015 146.837 -0.0770015V1.323ZM151.671 2.3415C152.795 2.98054 153.573 3.8703 154.031 5.02485L155.332 4.50914C154.754 3.04903 153.756 1.91612 152.363 1.1245L151.671 2.3415ZM154.031 5.02485C154.51 6.23483 154.758 7.64921 154.758 9.281H156.158C156.158 7.50879 155.889 5.91384 155.332 4.50914L154.031 5.02485ZM154.758 9.281V11.871H156.158V9.281H154.758ZM155.458 11.171H148.983V12.571H155.458V11.171ZM149.683 11.871V8.874H148.283V11.871H149.683ZM149.683 8.874C149.683 8.25288 149.645 7.65383 149.566 7.07742L148.179 7.26658C148.248 7.7755 148.283 8.31112 148.283 8.874H149.683ZM149.57 7.10862C149.51 6.45052 149.294 5.86056 148.886 5.38445L147.823 6.29555C148.007 6.51011 148.136 6.80815 148.175 7.23537L149.57 7.10862ZM148.901 5.40271C148.416 4.79607 147.655 4.585 146.837 4.585V5.985C147.451 5.985 147.701 6.14393 147.808 6.27729L148.901 5.40271ZM146.837 4.585C146.026 4.585 145.292 4.80462 144.772 5.36238L145.795 6.31762C145.965 6.13538 146.267 5.985 146.837 5.985V4.585ZM144.754 5.38155C144.337 5.86348 144.081 6.4557 143.965 7.12606L145.344 7.36594C145.425 6.90163 145.589 6.55652 145.812 6.29845L144.754 5.38155ZM143.961 7.15142C143.882 7.72905 143.843 8.34057 143.843 8.985H145.243C145.243 8.3961 145.279 7.84828 145.348 7.34058L143.961 7.15142ZM143.843 8.985V23.082H145.243V8.985H143.843ZM143.843 23.082C143.843 23.7821 143.895 24.4394 144.002 25.0519L145.381 24.8121C145.29 24.2899 145.243 23.7139 145.243 23.082H143.843ZM144.009 25.0871C144.154 25.7281 144.426 26.2896 144.844 26.7403L145.87 25.7877C145.648 25.5477 145.475 25.2213 145.374 24.7769L144.009 25.0871ZM144.881 26.777C145.397 27.2556 146.084 27.445 146.837 27.445V26.045C146.308 26.045 146.009 25.9137 145.834 25.751L144.881 26.777ZM146.837 27.445C147.626 27.445 148.363 27.249 148.849 26.6826L147.786 25.7714C147.679 25.8956 147.431 26.045 146.837 26.045V27.445ZM148.864 26.6643C149.255 26.1754 149.479 25.5793 149.567 24.9115L148.178 24.7305C148.117 25.1973 147.972 25.5386 147.771 25.7897L148.864 26.6643ZM149.567 24.9115C149.645 24.3132 149.683 23.7032 149.683 23.082H148.283C148.283 23.6448 148.248 24.1942 148.178 24.7305L149.567 24.9115ZM149.683 23.082V19.937H148.283V23.082H149.683ZM148.983 20.637H155.458V19.237H148.983V20.637ZM154.758 19.937V22.527H156.158V19.937H154.758ZM154.758 22.527C154.758 24.1581 154.51 25.6008 154.027 26.8653L155.335 27.3647C155.889 25.9159 156.158 24.2999 156.158 22.527H154.758ZM154.025 26.8719C153.588 28.0522 152.816 28.9928 151.682 29.7041L152.426 30.8899C153.809 30.0226 154.788 28.8418 155.338 27.3581L154.025 26.8719ZM151.686 29.7021C150.608 30.3702 149.017 30.744 146.837 30.744V32.144C149.147 32.144 151.034 31.7531 152.423 30.8919L151.686 29.7021ZM161.807 31H161.107V31.7H161.807V31ZM161.807 18.753H162.507V18.6432L162.473 18.5387L161.807 18.753ZM156.109 1.03V0.329998H155.148L155.442 1.24425L156.109 1.03ZM162.362 1.03L163.032 0.828374L162.882 0.329998H162.362V1.03ZM165.211 10.502L164.54 10.7036L165.247 13.0549L165.886 10.6842L165.211 10.502ZM167.764 1.03V0.329998H167.227L167.088 0.847827L167.764 1.03ZM173.758 1.03L174.425 1.24046L174.712 0.329998H173.758V1.03ZM168.171 18.753L167.503 18.5425L167.471 18.6453V18.753H168.171ZM168.171 31V31.7H168.871V31H168.171ZM162.507 31V18.753H161.107V31H162.507ZM162.473 18.5387L156.775 0.815746L155.442 1.24425L161.14 18.9673L162.473 18.5387ZM156.109 1.73H162.362V0.329998H156.109V1.73ZM161.691 1.23162L164.54 10.7036L165.881 10.3004L163.032 0.828374L161.691 1.23162ZM165.886 10.6842L168.439 1.21217L167.088 0.847827L164.535 10.3198L165.886 10.6842ZM167.764 1.73H173.758V0.329998H167.764V1.73ZM173.09 0.819539L167.503 18.5425L168.838 18.9635L174.425 1.24046L173.09 0.819539ZM167.471 18.753V31H168.871V18.753H167.471ZM168.171 30.3H161.807V31.7H168.171V30.3Z" fill="#44C4F1"/>
</svg>
