<svg width="37" height="31" viewBox="0 0 37 31" fill="none" xmlns="http://www.w3.org/2000/svg">
<path d="M0.220001 30.0613V0.0913086H10.284C12.0847 0.0913086 13.5647 0.436642 14.724 1.12731C15.8833 1.79331 16.7467 2.77998 17.314 4.08731C17.8813 5.36998 18.165 6.93631 18.165 8.78631C18.165 11.105 17.7827 12.881 17.018 14.1143C16.2533 15.323 15.2173 16.1616 13.91 16.6303C12.6027 17.099 11.135 17.3333 9.507 17.3333H6.843V30.0613H0.220001ZM6.843 12.7083H9.063C9.877 12.7083 10.4937 12.5603 10.913 12.2643C11.3323 11.9683 11.6037 11.5243 11.727 10.9323C11.875 10.3403 11.949 9.58798 11.949 8.67531C11.949 7.91064 11.8873 7.24464 11.764 6.67731C11.6653 6.08531 11.4063 5.61664 10.987 5.27131C10.5677 4.92598 9.914 4.75331 9.026 4.75331H6.843V12.7083Z" fill="#44C4F1"/>
<path d="M17.2553 30.0613L22.9163 0.0913086H30.4643L36.0513 30.0613H29.9463L28.9473 23.7343H24.5443L23.5083 30.0613H17.2553ZM25.1363 19.7753H28.3183L26.7273 8.08331L25.1363 19.7753Z" fill="#F5FDFF"/>
</svg>
